<svg width="593" height="593" viewBox="0 0 593 593" fill="none" xmlns="http://www.w3.org/2000/svg">
<circle cx="296.928" cy="296.928" r="202.5" fill="url(#paint0_radial_2_14)"/>
<path d="M246.198 166.427C268.522 127.761 324.333 127.761 346.657 166.428L434.126 317.928C456.45 356.594 428.544 404.928 383.896 404.928H208.959C164.31 404.928 136.405 356.594 158.729 317.928L246.198 166.427Z" fill="url(#paint1_linear_2_14)"/>
<path d="M383.896 187.928C428.545 187.928 456.45 236.261 434.126 274.928L346.657 426.428C324.333 465.094 268.522 465.094 246.198 426.428L158.729 274.927C136.405 236.261 164.311 187.928 208.959 187.928L383.896 187.928Z" fill="url(#paint2_linear_2_14)"/>
<path d="M252.053 331.803C250.053 331.553 246.198 331.428 240.49 331.428H235.49V248.053C238.157 248.219 241.094 248.303 244.303 248.303C247.511 248.303 249.782 248.136 251.115 247.803L272.115 283.49L292.303 247.803C293.636 248.136 296.178 248.303 299.928 248.303C303.678 248.303 306.886 248.219 309.553 248.053V331.428H304.553C298.844 331.428 294.99 331.553 292.99 331.803V275.803L272.553 312.365L252.053 278.74V331.803Z" fill="white"/>
<path d="M310.24 331.928C306.657 331.594 302.469 331.428 297.678 331.428H292.74L319.928 255.24C321.136 251.823 321.74 249.844 321.74 249.303C321.74 248.719 321.719 248.365 321.678 248.24L321.74 248.115C324.448 248.24 327.323 248.303 330.365 248.303C332.865 248.303 335.865 248.261 339.365 248.178L339.428 248.303C339.344 248.469 339.303 248.698 339.303 248.99C339.303 249.782 339.928 251.886 341.178 255.303L368.928 331.615C368.094 331.573 367.115 331.553 365.99 331.553C365.99 331.553 364.907 331.511 362.74 331.428C361.698 331.428 360.761 331.428 359.928 331.428H350.24L344.365 313.428H316.115L310.24 331.928ZM339.49 298.428L330.053 269.365L320.865 298.428H339.49Z" fill="white"/>
<defs>
<radialGradient id="paint0_radial_2_14" cx="0" cy="0" r="1" gradientUnits="userSpaceOnUse" gradientTransform="translate(296.928 296.928) rotate(90) scale(202.5)">
<stop stop-color="#8ADCF5" stop-opacity="0.45"/>
<stop offset="1" stop-color="#8684D3" stop-opacity="0.52"/>
</radialGradient>
<linearGradient id="paint1_linear_2_14" x1="132.428" y1="115.428" x2="496.428" y2="493.428" gradientUnits="userSpaceOnUse">
<stop stop-color="#00DAEA"/>
<stop offset="0.473958" stop-color="#6F64ED" stop-opacity="0.76"/>
<stop offset="1" stop-color="#C441F4"/>
</linearGradient>
<linearGradient id="paint2_linear_2_14" x1="371.178" y1="63.8993" x2="225.82" y2="568.133" gradientUnits="userSpaceOnUse">
<stop stop-color="#00DAEA"/>
<stop offset="0.473958" stop-color="#6F64ED" stop-opacity="0.76"/>
<stop offset="1" stop-color="#C441F4"/>
</linearGradient>
</defs>
</svg>
