<svg id="visual" viewBox="0 0 900 675" width="900" height="675" xmlns="http://www.w3.org/2000/svg" xmlns:xlink="http://www.w3.org/1999/xlink" version="1.1"><rect x="0" y="0" width="900" height="675" fill="#001220"></rect><path d="M0 468L21.5 472.2C43 476.3 86 484.7 128.8 480.5C171.7 476.3 214.3 459.7 257.2 446.2C300 432.7 343 422.3 385.8 431.5C428.7 440.7 471.3 469.3 514.2 473.5C557 477.7 600 457.3 642.8 445.7C685.7 434 728.3 431 771.2 431C814 431 857 434 878.5 435.5L900 437L900 676L878.5 676C857 676 814 676 771.2 676C728.3 676 685.7 676 642.8 676C600 676 557 676 514.2 676C471.3 676 428.7 676 385.8 676C343 676 300 676 257.2 676C214.3 676 171.7 676 128.8 676C86 676 43 676 21.5 676L0 676Z" fill="#fa7268"></path><path d="M0 476L21.5 475.5C43 475 86 474 128.8 476.3C171.7 478.7 214.3 484.3 257.2 486.7C300 489 343 488 385.8 485.7C428.7 483.3 471.3 479.7 514.2 478.3C557 477 600 478 642.8 486.8C685.7 495.7 728.3 512.3 771.2 518.2C814 524 857 519 878.5 516.5L900 514L900 676L878.5 676C857 676 814 676 771.2 676C728.3 676 685.7 676 642.8 676C600 676 557 676 514.2 676C471.3 676 428.7 676 385.8 676C343 676 300 676 257.2 676C214.3 676 171.7 676 128.8 676C86 676 43 676 21.5 676L0 676Z" fill="#ef5f67"></path><path d="M0 557L21.5 552.3C43 547.7 86 538.3 128.8 530C171.7 521.7 214.3 514.3 257.2 516.8C300 519.3 343 531.7 385.8 535.3C428.7 539 471.3 534 514.2 529.3C557 524.7 600 520.3 642.8 525.5C685.7 530.7 728.3 545.3 771.2 551C814 556.7 857 553.3 878.5 551.7L900 550L900 676L878.5 676C857 676 814 676 771.2 676C728.3 676 685.7 676 642.8 676C600 676 557 676 514.2 676C471.3 676 428.7 676 385.8 676C343 676 300 676 257.2 676C214.3 676 171.7 676 128.8 676C86 676 43 676 21.5 676L0 676Z" fill="#e34c67"></path><path d="M0 603L21.5 598.5C43 594 86 585 128.8 576.7C171.7 568.3 214.3 560.7 257.2 556.8C300 553 343 553 385.8 558.5C428.7 564 471.3 575 514.2 578.3C557 581.7 600 577.3 642.8 574.7C685.7 572 728.3 571 771.2 569.3C814 567.7 857 565.3 878.5 564.2L900 563L900 676L878.5 676C857 676 814 676 771.2 676C728.3 676 685.7 676 642.8 676C600 676 557 676 514.2 676C471.3 676 428.7 676 385.8 676C343 676 300 676 257.2 676C214.3 676 171.7 676 128.8 676C86 676 43 676 21.5 676L0 676Z" fill="#d53867"></path><path d="M0 622L21.5 619.5C43 617 86 612 128.8 612C171.7 612 214.3 617 257.2 622C300 627 343 632 385.8 632.5C428.7 633 471.3 629 514.2 627.7C557 626.3 600 627.7 642.8 626.2C685.7 624.7 728.3 620.3 771.2 623.2C814 626 857 636 878.5 641L900 646L900 676L878.5 676C857 676 814 676 771.2 676C728.3 676 685.7 676 642.8 676C600 676 557 676 514.2 676C471.3 676 428.7 676 385.8 676C343 676 300 676 257.2 676C214.3 676 171.7 676 128.8 676C86 676 43 676 21.5 676L0 676Z" fill="#c62368"></path></svg>